<svg id="Layer_1" data-name="Layer 1" xmlns="http://www.w3.org/2000/svg" viewBox="0 0 644.78 475.99"><title>gogrillion</title><path d="M420.23,199.35a13.29,13.29,0,1,0,13.29,13.29A13.3,13.3,0,0,0,420.23,199.35Z" transform="translate(-73.46 -61)" style="fill:#b3d234"/><path d="M528,140.43A79.43,79.43,0,0,0,448.57,61H330.43A79.43,79.43,0,0,0,251,140.43V258.57A79.43,79.43,0,0,0,330.43,338H448.57A79.43,79.43,0,0,0,528,258.57ZM339.67,284h99.19A35.33,35.33,0,0,0,474,249V226H454.25a36.47,36.47,0,1,1-12.05-42.83A38.51,38.51,0,0,1,454.35,199H501v50c0,34.08-28.06,62-62.14,62H339.67C305.59,311,278,283.1,278,249V149.82A61.77,61.77,0,0,1,339.67,88h99.19a61.93,61.93,0,0,1,61.8,61.32l0,3.68H473.64l0-3.65A34.85,34.85,0,0,0,438.86,115H339.67A34.79,34.79,0,0,0,305,149.82V249A34.93,34.93,0,0,0,339.67,284Z" transform="translate(-73.46 -61)" style="fill:#b3d234"/><path d="M152.65,471.59c1.8,0,2.4.8,2.4,2.4v34.8c0,15.6-8.6,28.2-40.8,28.2s-40.8-12.6-40.8-28.2V426c0-15.6,8.6-28.2,40.8-28.2s40.8,12.6,40.8,28.2v10c0,1.6-.6,2.4-2.2,2.4h-5.8a2.12,2.12,0,0,1-2.4-2.4v-8.4c0-12.2-7-20.6-30.4-20.6s-30.2,8.4-30.2,20.6v79.6c0,12.2,6.8,20.6,30.2,20.6,23.2,0,30.4-8.2,30.4-20.2v-26.8h-28.6c-1.6,0-2.4-.6-2.4-2.4V474a2.12,2.12,0,0,1,2.4-2.4Z" transform="translate(-73.46 -61)" style="fill:#b3d234"/><path d="M167.65,460c0-14.6,9.4-24.8,36.2-24.8s36.2,10.2,36.2,24.8v52.4c0,14.4-9.4,24.6-36.2,24.6s-36.2-10.2-36.2-24.6Zm62,.6c0-9.8-6.2-16.6-25.8-16.6s-25.8,6.8-25.8,16.6v51c0,10,6.2,16.6,25.8,16.6s25.8-6.6,25.8-16.6Z" transform="translate(-73.46 -61)" style="fill:#b3d234"/><path d="M340.85,471.59c1.8,0,2.4.8,2.4,2.4v34.8c0,15.6-8.6,28.2-40.8,28.2s-40.8-12.6-40.8-28.2V426c0-15.6,8.6-28.2,40.8-28.2s40.8,12.6,40.8,28.2v10c0,1.6-.6,2.4-2.2,2.4h-5.8a2.12,2.12,0,0,1-2.4-2.4v-8.4c0-12.2-7-20.6-30.4-20.6s-30.2,8.4-30.2,20.6v79.6c0,12.2,6.8,20.6,30.2,20.6,23.2,0,30.4-8.2,30.4-20.2v-26.8h-28.6c-1.6,0-2.4-.6-2.4-2.4V474a2.12,2.12,0,0,1,2.4-2.4Z" transform="translate(-73.46 -61)" style="fill:#b3d234"/><path d="M402.85,437.59v4.8c0,1.8-1,2.4-2.6,2.4-15.2.6-28.8,9.8-33.6,14V533a2.12,2.12,0,0,1-2.4,2.4h-5.6c-1.8,0-2.4-.8-2.4-2.4v-93.8c0-1.6.6-2.4,2.4-2.4h5a2.12,2.12,0,0,1,2.4,2.4l.4,10.8c5.8-5.2,18.8-14.6,33.8-14.6C401.85,435.39,402.85,436,402.85,437.59Z" transform="translate(-73.46 -61)" style="fill:#b3d234"/><path d="M426,417a2.12,2.12,0,0,1-2.4,2.4H418c-1.8,0-2.4-.8-2.4-2.4V398c0-1.6.6-2.4,2.4-2.4h5.6A2.12,2.12,0,0,1,426,398Zm0,116a2.12,2.12,0,0,1-2.4,2.4H418c-1.8,0-2.4-.8-2.4-2.4v-93.6c0-1.8.6-2.6,2.4-2.6h5.6c1.6,0,2.4.8,2.4,2.6Z" transform="translate(-73.46 -61)" style="fill:#b3d234"/><path d="M462.25,533a2.12,2.12,0,0,1-2.4,2.4h-5.6c-1.8,0-2.4-.8-2.4-2.4V398c0-1.6.6-2.4,2.4-2.4h5.6a2.12,2.12,0,0,1,2.4,2.4Z" transform="translate(-73.46 -61)" style="fill:#b3d234"/><path d="M498.44,533a2.12,2.12,0,0,1-2.4,2.4h-5.6c-1.8,0-2.4-.8-2.4-2.4V398c0-1.6.6-2.4,2.4-2.4H496a2.12,2.12,0,0,1,2.4,2.4Z" transform="translate(-73.46 -61)" style="fill:#b3d234"/><path d="M534.64,417a2.12,2.12,0,0,1-2.4,2.4h-5.6c-1.8,0-2.4-.8-2.4-2.4V398c0-1.6.6-2.4,2.4-2.4h5.6a2.12,2.12,0,0,1,2.4,2.4Zm0,116a2.12,2.12,0,0,1-2.4,2.4h-5.6c-1.8,0-2.4-.8-2.4-2.4v-93.6c0-1.8.6-2.6,2.4-2.6h5.6c1.6,0,2.4.8,2.4,2.6Z" transform="translate(-73.46 -61)" style="fill:#b3d234"/><path d="M554,460c0-14.6,9.4-24.8,36.2-24.8s36.2,10.2,36.2,24.8v52.4c0,14.4-9.4,24.6-36.2,24.6s-36.2-10.2-36.2-24.6Zm62,.6c0-9.8-6.2-16.6-25.8-16.6s-25.8,6.8-25.8,16.6v51c0,10,6.2,16.6,25.8,16.6s25.8-6.6,25.8-16.6Z" transform="translate(-73.46 -61)" style="fill:#b3d234"/><path d="M655.84,439.19l.2,8.4a54.3,54.3,0,0,1,34.8-12.4c18.8,0,27.4,10,27.4,24V533c0,1.6-.6,2.4-2.2,2.4h-5.8c-1.6,0-2.2-.8-2.2-2.4v-71.8c0-9.8-5.8-16.6-19.6-16.6a49.84,49.84,0,0,0-32,12V533a2.12,2.12,0,0,1-2.4,2.4h-5.6c-1.8,0-2.4-.8-2.4-2.4v-93.8c0-1.6.6-2.4,2.4-2.4h5A2.12,2.12,0,0,1,655.84,439.19Z" transform="translate(-73.46 -61)" style="fill:#b3d234"/></svg>